<svg width="24" height="25" viewBox="0 0 24 25" fill="none" xmlns="http://www.w3.org/2000/svg">
<g id="Group 50">
<g id="Group">
<path id="Vector" d="M0.832628 4.87379C0.276545 4.33105 0 3.65923 0 2.8599C0 2.06056 0.278024 1.35919 0.832628 0.814889C1.38871 0.272147 2.10452 0 2.98154 0C3.85855 0 4.54627 0.272147 5.10088 0.814889C5.65696 1.35763 5.93351 2.04034 5.93351 2.8599C5.93351 3.67945 5.65548 4.33105 5.10088 4.87379C4.54479 5.41653 3.83933 5.68868 2.98154 5.68868C2.12375 5.68868 1.38871 5.41653 0.832628 4.87379ZM5.46617 7.98717V24.6271H0.465853V7.98717H5.46617Z" fill="white"/>
<path id="Vector_2" d="M22.1117 9.63179C23.2017 10.8759 23.7459 12.5834 23.7459 14.7575V24.334H18.9971V15.4324C18.9971 14.3361 18.7264 13.4838 18.1866 12.8773C17.6468 12.2708 16.9192 11.966 16.0081 11.966C15.0971 11.966 14.3694 12.2693 13.8296 12.8773C13.2898 13.4838 13.0191 14.3361 13.0191 15.4324V24.334H8.24219V7.94136H13.0191V10.1154C13.5028 9.39072 14.155 8.81844 14.9743 8.397C15.7937 7.97556 16.7151 7.76562 17.74 7.76562C19.565 7.76562 21.0232 8.38768 22.1117 9.63179Z" fill="white"/>
</g>
</g>
</svg>
