<svg width="18" height="26" viewBox="0 0 18 26" fill="none" xmlns="http://www.w3.org/2000/svg">
<g id="pinterest">
<path id="Vector" fill-rule="evenodd" clip-rule="evenodd" d="M7.52629 16.4574C7.50706 16.5298 7.48897 16.5912 7.47427 16.6525C6.62047 20.2828 6.52548 21.0891 5.64793 22.7754C5.22951 23.5768 4.75794 24.3365 4.23661 25.063C4.17781 25.1452 4.12239 25.2508 4.00478 25.225C3.87586 25.1956 3.86569 25.0692 3.85212 24.9575C3.71189 23.8542 3.63386 22.7484 3.66779 21.634C3.71189 20.1834 3.877 19.6851 5.60043 11.8208C5.62531 11.7005 5.59704 11.6011 5.56085 11.4931C5.14808 10.2855 5.06666 9.05944 5.42741 7.81745C6.2077 5.13464 9.00998 4.92969 9.49964 7.14245C9.80158 8.51085 9.0032 10.3027 8.39027 12.9511C7.88251 15.1356 10.2528 16.6894 12.2782 15.0939C14.1464 13.6236 14.8712 10.0989 14.7333 7.60022C14.4619 2.61874 9.4284 1.54242 6.23598 3.14646C2.57538 4.98368 1.74306 9.90749 3.39638 12.1583C3.60559 12.4443 4.00026 12.6197 3.93128 12.9094C3.82498 13.3598 3.73111 13.8139 3.61577 14.2618C3.52982 14.5956 3.04016 14.7171 2.72917 14.5797C2.11964 14.3122 1.61188 13.8912 1.20025 13.3365C-0.203155 11.4501 -0.604609 7.71926 1.25114 4.56027C3.30704 1.06133 7.13162 -0.354943 10.6237 0.074601C14.7943 0.588827 17.4304 3.68156 17.9234 7.19032C18.1485 8.78822 17.9868 12.729 15.9196 15.5149C13.5413 18.7156 9.68623 18.9279 7.90739 16.963C7.77055 16.8121 7.66086 16.6366 7.52629 16.4562V16.4574Z" fill="white"/>
</g>
</svg>
