<svg width="26" height="18" viewBox="0 0 26 18" fill="none" xmlns="http://www.w3.org/2000/svg">
<g id="behance">
<g id="Group">
<path id="Vector" d="M11.2399 9.54999C10.8447 9.02883 10.3921 8.63003 9.88532 8.36024C10.3331 8.07369 10.7188 7.72178 11.0375 7.30284C11.5746 6.59568 11.8471 5.70922 11.8471 4.66692C11.8471 3.79721 11.6288 2.99788 11.1969 2.29239C10.7666 1.58691 10.126 1.02052 9.29249 0.608292C8.47655 0.20444 7.49327 0 6.37295 0H0V17.3053H6.66618C7.75782 17.3053 8.73312 17.0958 9.56341 16.6836C10.4096 16.2647 11.0694 15.6782 11.522 14.9425C11.9762 14.2035 12.2072 13.364 12.2072 12.4473C12.2072 11.3732 11.8821 10.3996 11.2399 9.55166V9.54999ZM7.85503 6.39629C7.4614 6.73143 6.8861 6.90236 6.14824 6.90236H3.39126V3.06826H6.14824C6.88291 3.06826 7.45503 3.24421 7.84865 3.59276C8.22635 3.92624 8.40961 4.38706 8.40961 4.99703C8.40961 5.607 8.22794 6.07957 7.85503 6.39629ZM3.39126 9.97228H6.35064C7.12514 9.97228 7.72116 10.17 8.17216 10.5772C8.60404 10.9677 8.8144 11.4855 8.8144 12.1625C8.8144 12.8395 8.61997 13.3171 8.21838 13.674C7.80244 14.0443 7.20483 14.232 6.43988 14.232H3.39126V9.97228Z" fill="white"/>
<path id="Vector_2" d="M25.2278 6.65728C24.7147 5.682 23.988 4.91286 23.0669 4.37327C22.1473 3.83369 21.0844 3.56055 19.9115 3.56055C18.7386 3.56055 17.5959 3.84207 16.6541 4.39674C15.7106 4.95308 14.968 5.75242 14.4485 6.77629C13.929 7.79849 13.666 8.99828 13.666 10.3422C13.666 11.6862 13.9369 12.8877 14.4724 13.9082C15.0079 14.9304 15.7569 15.7347 16.7003 16.2978C17.6421 16.8608 18.7226 17.1457 19.9131 17.1457C21.3744 17.1457 22.6159 16.7553 23.6039 15.9861C24.592 15.217 25.2836 14.2149 25.6613 13.01L25.6884 12.9246H22.7975L22.78 12.9614C22.2238 14.1462 21.2597 14.7461 19.9115 14.7461C18.9728 14.7461 18.1696 14.4327 17.5242 13.8177C16.8947 13.2161 16.533 12.4118 16.4485 11.4248H25.9019L25.9099 11.3695C25.9705 10.9723 26.0008 10.5232 26.0008 10.0356C26.0008 8.76873 25.741 7.63256 25.2278 6.65728ZM17.5688 6.83156C18.184 6.25343 18.9346 5.96187 19.7983 5.96187C20.7529 5.96187 21.5641 6.25847 22.2095 6.84498C22.8374 7.41473 23.1705 8.18055 23.1991 9.11896H16.4756C16.6031 8.16547 16.9712 7.39629 17.5704 6.83324L17.5688 6.83156Z" fill="white"/>
<path id="Vector_3" d="M22.98 0.398438H16.6836V1.96692H22.98V0.398438Z" fill="white"/>
</g>
</g>
</svg>
