<svg width="25" height="26" viewBox="0 0 25 26" fill="none" xmlns="http://www.w3.org/2000/svg">
<g id="insta">
<g id="Group">
<path id="Vector" d="M18.7436 0H6.25636C2.80653 0 0 2.95111 0 6.57867V18.5913C0 22.2188 2.80653 25.1699 6.25636 25.1699H18.7436C22.1935 25.1699 25 22.2188 25 18.5913V6.57867C25 2.95111 22.1935 0 18.7436 0ZM2.20705 6.57867C2.20705 4.23116 4.02387 2.32074 6.25636 2.32074H18.7436C20.9761 2.32074 22.793 4.23116 22.793 6.57867V18.5913C22.793 20.9388 20.9761 22.8492 18.7436 22.8492H6.25636C4.02387 22.8492 2.20705 20.9388 2.20705 18.5913V6.57867Z" fill="white"/>
<path id="Vector_2" d="M12.5011 18.7034C15.7092 18.7034 18.3206 15.9589 18.3206 12.5841C18.3206 9.20931 15.7106 6.46484 12.5011 6.46484C9.29164 6.46484 6.68164 9.20931 6.68164 12.5841C6.68164 15.9589 9.29164 18.7034 12.5011 18.7034ZM12.5011 8.78708C14.4933 8.78708 16.1136 10.4908 16.1136 12.5856C16.1136 14.6804 14.4933 16.3842 12.5011 16.3842C10.509 16.3842 8.88869 14.6804 8.88869 12.5856C8.88869 10.4908 10.509 8.78708 12.5011 8.78708Z" fill="white"/>
<path id="Vector_3" d="M18.859 7.45292C19.7229 7.45292 20.427 6.71422 20.427 5.80458C20.427 4.89495 19.7243 4.15625 18.859 4.15625C17.9937 4.15625 17.291 4.89495 17.291 5.80458C17.291 6.71422 17.9937 7.45292 18.859 7.45292Z" fill="white"/>
</g>
</g>
</svg>
