<svg width="44" height="38" viewBox="0 0 44 38" fill="none" xmlns="http://www.w3.org/2000/svg">
<path d="M1.87988 7L15.7059 14.8339C20.8031 17.722 22.9567 17.722 28.0538 14.8339L41.8799 7" stroke="white" stroke-width="3" stroke-linejoin="round"/>
<path d="M1.91141 21.9512C2.04216 28.0823 2.10754 31.1478 4.3698 33.4187C6.63205 35.6895 9.78055 35.7686 16.0775 35.9269C19.9585 36.0244 23.8013 36.0244 27.6822 35.9269C33.9792 35.7686 37.1277 35.6895 39.39 33.4187C41.6522 31.1478 41.7176 28.0823 41.8484 21.9512C41.8904 19.9798 41.8904 18.0201 41.8484 16.0488C41.7176 9.91769 41.6522 6.85216 39.39 4.58129C37.1277 2.31043 33.9792 2.23132 27.6822 2.07311C23.8013 1.97559 19.9585 1.97559 16.0775 2.07309C9.78054 2.2313 6.63205 2.3104 4.36979 4.58126C2.10753 6.85213 2.04216 9.91766 1.91141 16.0487C1.86937 18.0201 1.86937 19.9798 1.91141 21.9512Z" stroke="white" stroke-width="3" stroke-linejoin="round"/>
</svg>
